<?xml version="1.0" encoding="UTF-8"?>
<svg id="Layer_2" data-name="Layer 2" xmlns="http://www.w3.org/2000/svg" viewBox="0 0 192.5 280.17">
  <defs>
    <style>
      .cls-1 {
        stroke-linecap: round;
      }

      .cls-1, .cls-2 {
        fill: none;
        stroke: #3c3c3b;
        stroke-miterlimit: 10;
        stroke-width: 10px;
      }
    </style>
  </defs>
  <g id="click">
    <path class="cls-2" d="M180.24,142.08c4.74,4.38,7.26,10.65,7.26,17.1v78.69c0,20.23-16.4,36.63-36.63,36.63,0,0-52.87,1.5-69.89,0-10.98,0-23.98-15.5-23.98-15.5L10.35,208.62c-2.52-2.72-4.22-6.1-4.82-9.75-1.2-7.33-1.24-19.18,9.47-23.87,20.62-9.02,36.15,8.77,37.85,10.81,.05,.06,.15,.02,.15-.06V72.64c0-11.99,9.65-21.75,21.64-21.89h0c12.13-.14,22.06,9.61,22.14,21.74,.09,14.67,.2,33.08,.22,43.29,0,1.14,1.01,1.99,2.14,1.83,4.46-.64,14.9-1.19,21.48,6.09,2.54,2.81,6.33,4.24,10.09,3.78,5.74-.7,14.04-.24,20.37,6.22,2.71,2.76,6.59,3.99,10.4,3.31,5.13-.92,12.46-.73,18.76,5.08Z"/>
    <path class="cls-1" d="M28,72c0-25.96,21.04-47,47-47s47,21.04,47,47"/>
    <path class="cls-1" d="M33.35,125.26c-16.02-12.24-26.35-31.55-26.35-53.26C7,35,37,5,74,5s67,30,67,67c0,12.6-3.48,24.39-9.53,34.46"/>
  </g>
</svg>