<svg width="24" height="20" viewBox="0 0 24 20" fill="none" xmlns="http://www.w3.org/2000/svg">
<path d="M7.4501 9.9999C8.65683 9.9999 9.81414 9.52053 10.6674 8.66724C11.5207 7.81395 12.0001 6.65664 12.0001 5.4499C12.0001 4.24317 11.5207 3.08586 10.6674 2.23257C9.81414 1.37928 8.65683 0.899902 7.4501 0.899902C6.24336 0.899902 5.08605 1.37928 4.23276 2.23257C3.37947 3.08586 2.9001 4.24317 2.9001 5.4499C2.9001 6.65664 3.37947 7.81395 4.23276 8.66724C5.08605 9.52053 6.24336 9.9999 7.4501 9.9999ZM15.4119 17.2029C16.1539 17.5067 17.0975 17.6999 18.2987 17.6999C23.8987 17.6999 23.8987 13.4999 23.8987 13.4999C23.8987 12.9432 23.6776 12.4093 23.2841 12.0155C22.8906 11.6217 22.3568 11.4003 21.8001 11.3999H15.3209C15.8711 12.0663 16.2015 12.9189 16.2015 13.8499V14.3483C16.1986 14.4662 16.1907 14.5839 16.1777 14.7011C16.0832 15.5758 15.8239 16.4247 15.4133 17.2029H15.4119ZM21.8001 6.4999C21.8001 7.42816 21.4313 8.3184 20.775 8.97478C20.1186 9.63115 19.2284 9.9999 18.3001 9.9999C17.3718 9.9999 16.4816 9.63115 15.8252 8.97478C15.1688 8.3184 14.8001 7.42816 14.8001 6.4999C14.8001 5.57164 15.1688 4.68141 15.8252 4.02503C16.4816 3.36865 17.3718 2.9999 18.3001 2.9999C19.2284 2.9999 20.1186 3.36865 20.775 4.02503C21.4313 4.68141 21.8001 5.57164 21.8001 6.4999ZM0.100098 14.1999C0.100098 13.4573 0.395097 12.7451 0.920199 12.22C1.4453 11.6949 2.15749 11.3999 2.9001 11.3999H12.0001C12.7427 11.3999 13.4549 11.6949 13.98 12.22C14.5051 12.7451 14.8001 13.4573 14.8001 14.1999C14.8001 14.1999 14.8001 19.7999 7.4501 19.7999C0.100098 19.7999 0.100098 14.1999 0.100098 14.1999ZM16.2001 14.3483L16.1959 14.4379L16.1987 14.3483H16.2001Z" fill="#3C3C3B"/>
</svg>
