<?xml version="1.0" encoding="UTF-8"?>
<svg id="Layer_2" data-name="Layer 2" xmlns="http://www.w3.org/2000/svg" viewBox="0 0 211.05 201.48">
  <defs>
    <style>
      .cls-1 {
        fill: #ebd52d;
      }
    </style>
  </defs>
  <g id="click">
    <path id="star-full" class="cls-1" d="M112.54,4.36l26.54,53.79c1.14,2.31,3.34,3.91,5.89,4.28l59.36,8.62c6.42,.93,8.98,8.82,4.34,13.35l-42.95,41.87c-1.84,1.8-2.69,4.39-2.25,6.93l10.14,59.12c1.1,6.39-5.61,11.27-11.36,8.25l-53.09-27.91c-2.28-1.2-5-1.2-7.28,0l-53.09,27.91c-5.74,3.02-12.45-1.86-11.36-8.25l10.14-59.12c.44-2.54-.41-5.13-2.25-6.93L2.37,84.41c-4.65-4.53-2.08-12.42,4.34-13.35l59.36-8.62c2.55-.37,4.75-1.97,5.89-4.28L98.5,4.36c2.87-5.82,11.17-5.82,14.04,0Z"/>
  </g>
</svg>