<?xml version="1.0" encoding="UTF-8"?>
<svg id="Layer_2" data-name="Layer 2" xmlns="http://www.w3.org/2000/svg" viewBox="0 0 205 167.23">
  <defs>
    <style>
      .cls-1 {
        font-size: 29.22px;
      }

      .cls-1, .cls-2, .cls-3 {
        fill: #0772b6;
      }

      .cls-1, .cls-3 {
        font-family: Roboto-Bold, Roboto;
        font-weight: 700;
      }

      .cls-3 {
        font-size: 68.02px;
      }
    </style>
  </defs>
  <g id="atendimento-24h">
    <g>
      <path class="cls-2" d="M137.47,24.36l-5.14,2.73c-.17-.25-.34-.49-.54-.72C117.54,9.61,96.77,0,74.79,0,33.55,0,0,33.55,0,74.79s33.55,74.79,74.79,74.79c4.18,0,7.56-3.39,7.56-7.56s-3.39-7.56-7.56-7.56c-15.51,0-29.65-5.95-40.27-15.68l11.98-11.98c.89-.89,.89-2.34,0-3.23s-2.34-.89-3.23,0l-11.99,11.99c-8.56-9.13-14.29-20.95-15.77-34.04H31.51c4.32,0,7.81-3.5,7.81-7.81h0c0-4.32-3.5-7.81-7.81-7.81H15.79c1.79-11.93,7.12-22.71,14.89-31.25l12.1,10.83c.94,.84,2.39,.76,3.23-.18s.76-2.39-.18-3.23l-11.93-10.68c9.27-8.74,21.32-14.56,34.68-15.95v15.92c0,4.32,3.5,7.81,7.81,7.81s7.81-3.5,7.81-7.81V15.87c13.17,2.1,25.32,8.56,34.47,18.48l-4.65,2.47c-2.44,1.3-2.56,4.75-.22,6.21l22.52,14.09c2.34,1.46,5.39-.15,5.49-2.91l.94-26.55c.1-2.76-2.83-4.59-5.27-3.3Z"/>
      <path class="cls-2" d="M50.91,100.04c1.23,1.23,3.23,1.23,4.47,0l17.9-17.9c.73,.26,1.52,.4,2.34,.4,3.9,0,7.06-3.16,7.06-7.06,0-2.4-1.2-4.51-3.02-5.79v-19.55c0-1.74-1.41-3.16-3.16-3.16s-3.16,1.41-3.16,3.16v18.67c-2.77,.95-4.77,3.58-4.77,6.67,0,.74,.11,1.45,.32,2.12l-17.97,17.97c-1.23,1.23-1.23,3.23,0,4.47Z"/>
    </g>
    <text class="cls-1" transform="translate(89.89 89.75)"><tspan x="0" y="0">Plantão</tspan></text>
    <text class="cls-3" transform="translate(88.88 148.8)"><tspan x="0" y="0">24h</tspan></text>
  </g>
</svg>