<?xml version="1.0" encoding="UTF-8"?>
<svg id="Layer_2" data-name="Layer 2" xmlns="http://www.w3.org/2000/svg" viewBox="0 0 112.26 96.55">
  <defs>
    <style>
      .cls-1 {
        fill: #0772b6;
      }
    </style>
  </defs>
  <g id="atendimento-emergencial">
    <path class="cls-1" d="M56.05,28.31c-14.98,0-27.17,12.19-27.17,27.17s12.19,27.17,27.17,27.17,27.17-12.19,27.17-27.17-12.19-27.17-27.17-27.17Zm19.08,34.41h-11.84v11.84h-14.49v-11.84h-11.84v-14.49h11.84v-11.84h14.49v11.84h11.84v14.49Z"/>
    <path class="cls-1" d="M100.3,14.36h-19.11v-2.49c0-6.55-5.33-11.88-11.88-11.88h-25.9c-6.55,0-11.88,5.33-11.88,11.88v2.49H11.96C5.37,14.36,0,19.73,0,26.32v58.26c0,6.6,5.37,11.96,11.96,11.96H100.3c6.6,0,11.96-5.37,11.96-11.96V26.32c0-6.6-5.37-11.96-11.96-11.96Zm-62.72-2.49c0-3.22,2.62-5.84,5.84-5.84h25.9c3.22,0,5.84,2.62,5.84,5.84v2.49H37.58v-2.49Zm18.48,74.7c-17.14,0-31.09-13.95-31.09-31.09s13.95-31.09,31.09-31.09,31.09,13.95,31.09,31.09-13.95,31.09-31.09,31.09Z"/>
  </g>
</svg>