<?xml version="1.0" encoding="UTF-8"?>
<svg id="Layer_2" data-name="Layer 2" xmlns="http://www.w3.org/2000/svg" viewBox="0 0 112.26 112.65">
  <defs>
    <style>
      .cls-1 {
        fill: #0772b6;
      }
    </style>
  </defs>
  <g id="cobertura-eventos">
    <rect class="cls-1" x="51.86" y="72.99" width="8.54" height="35.39" rx="1.46" ry="1.46" transform="translate(146.82 34.56) rotate(90)"/>
    <rect class="cls-1" x="51.86" y="90.69" width="8.54" height="35.39" rx="1.17" ry="1.17" transform="translate(164.51 52.25) rotate(90)"/>
    <path class="cls-1" d="M76.26,65.33v45.22c0,1.16,.94,2.1,2.1,2.1h31.8c1.16,0,2.1-.94,2.1-2.1v-45.22c0-1.16-.94-2.1-2.1-2.1h-31.8c-1.16,0-2.1,.94-2.1,2.1Zm25.36,38.78h-14.71c-1.16,0-2.1-.94-2.1-2.1v-28.14c0-1.16,.94-2.1,2.1-2.1h14.71c1.16,0,2.1,.94,2.1,2.1v28.14c0,1.16-.94,2.1-2.1,2.1Z"/>
    <path class="cls-1" d="M0,65.24v45.39c0,1.11,.9,2.01,2.01,2.01h31.97c1.11,0,2.01-.9,2.01-2.01v-45.39c0-1.11-.9-2.01-2.01-2.01H2.01c-1.11,0-2.01,.9-2.01,2.01Zm25.44,38.86H10.55c-1.11,0-2.01-.9-2.01-2.01v-28.31c0-1.11,.9-2.01,2.01-2.01h14.89c1.11,0,2.01,.9,2.01,2.01v28.31c0,1.11-.9,2.01-2.01,2.01Z"/>
    <ellipse class="cls-1" cx="37.22" cy="45.45" rx="4.27" ry="2.14"/>
    <ellipse class="cls-1" cx="57.35" cy="44.84" rx="4.27" ry="2.14"/>
    <ellipse class="cls-1" cx="76.87" cy="44.84" rx="4.27" ry="2.14"/>
    <path class="cls-1" d="M103.72,4.27V13.2c0,.53-.51,.9-1.02,.75L59.65,.62c-.55-.17-1.12-.24-1.69-.22l-3.54,.14c-.47,.02-.93,.1-1.38,.25L9.57,15.03c-.51,.17-1.03-.21-1.03-.74V4.27C8.54,1.91,6.63,0,4.27,0h0C1.91,0,0,1.91,0,4.27V59.01c0,.43,.35,.78,.78,.78H7.76c.43,0,.78-.35,.78-.78v-3.87c0-.22,.09-.43,.25-.58l6.97-6.42c.5-.46,1.31-.11,1.31,.58v10.29c0,.43,.35,.78,.78,.78h6.97c.43,0,.78-.35,.78-.78v-25.89c0-.43,.35-.78,.78-.78h7.74c.43,0,.78,.35,.78,.78v1.7c0,.28-.16,.53-.4,.68-1.4,.86-2.34,2.4-2.34,4.16,0,.73,.16,1.41,.44,2.03,.05,.12,.22,.11,.27-.01,.75-1.73,2.47-2.94,4.47-2.94,1.73,0,3.25,.9,4.12,2.26,.07,.11,.23,.09,.27-.03,.23-.82,.26-1.72,0-2.66-.34-1.19-1.12-2.19-2.15-2.83-.24-.15-.4-.4-.4-.68v-1.69c0-.43,.35-.78,.78-.78h14.14c.43,0,.78,.35,.78,.78v2.15c-1.62,.79-2.75,2.45-2.75,4.38,0,.73,.16,1.41,.44,2.03,.05,.12,.22,.11,.27-.01,.75-1.73,2.47-2.94,4.47-2.94,1.73,0,3.25,.9,4.12,2.26,.07,.11,.23,.09,.27-.03,.23-.82,.26-1.72,0-2.66-.38-1.34-1.33-2.45-2.55-3.05v-2.15c0-.43,.35-.78,.78-.78h13.69c.43,0,.78,.35,.78,.78v2.15c-1.62,.79-2.75,2.45-2.75,4.38,0,.73,.16,1.41,.44,2.03,.05,.12,.22,.11,.27-.01,.75-1.73,2.47-2.94,4.47-2.94,1.73,0,3.25,.9,4.12,2.26,.07,.11,.23,.09,.27-.03,.23-.82,.26-1.72,0-2.66-.38-1.34-1.33-2.45-2.55-3.05v-2.15c0-.43,.35-.78,.78-.78h6.97c.43,0,.78,.35,.78,.78v25.89c0,.43,.35,.78,.78,.78h6.97c.43,0,.78-.35,.78-.78v-9.62c0-.66,.77-1.03,1.28-.6l6.36,5.26c.18,.15,.28,.37,.28,.6v4.36c0,.43,.35,.78,.78,.78h6.97c.43,0,.78-.35,.78-.78V4.27c0-2.36-1.91-4.27-4.27-4.27h0c-2.36,0-4.27,1.91-4.27,4.27ZM17.08,39.09l-8.54,7.86v-14.61h8.54v6.75Zm86.64,7.7l-7.93-6.56v-7.89h7.93v14.45Zm0-23H10.26L56.38,8.68l.37-.02,46.98,14.54v.59Z"/>
    <circle class="cls-1" cx="18.3" cy="93.74" r="4.27"/>
    <circle class="cls-1" cx="18.3" cy="79.7" r="2.44"/>
    <circle class="cls-1" cx="94.57" cy="93.74" r="4.27"/>
    <circle class="cls-1" cx="94.57" cy="79.7" r="2.44"/>
  </g>
</svg>