<?xml version="1.0" encoding="UTF-8"?>
<svg id="Layer_2" data-name="Layer 2" xmlns="http://www.w3.org/2000/svg" viewBox="0 0 96.49 96.48">
  <defs>
    <style>
      .cls-1 {
        fill: #0772b6;
      }
    </style>
  </defs>
  <g id="gestao-em-saude">
    <g>
      <path class="cls-1" d="M94.46,45.12l-10.08-2.86c-.3-2.03-.76-4-1.37-5.91l7.85-5.13c1.21-.79,1.62-2.37,.95-3.64l-2.17-4.13c-.61-1.15-1.93-1.74-3.19-1.4l-9.65,2.54c-1.1-1.41-2.29-2.74-3.58-3.99l4.15-7.81c.68-1.27,.28-2.85-.93-3.65l-3.89-2.57c-1.09-.72-2.53-.59-3.47,.31l-6.69,6.36c-2.24-1.01-4.6-1.81-7.05-2.37l-.42-8.02c-.08-1.44-1.24-2.59-2.68-2.65L47.57,0c-1.3-.05-2.47,.8-2.81,2.05l-2.23,8.08c-2.41,.27-4.75,.76-7,1.45l-3.91-6.11c-.78-1.21-2.35-1.64-3.63-.98l-4.15,2.13c-1.16,.6-1.75,1.91-1.43,3.17l1.89,7.47c-2.28,1.68-4.37,3.62-6.22,5.76l-6-3c-1.29-.65-2.86-.2-3.62,1.02l-2.47,3.96c-.69,1.1-.53,2.54,.39,3.46l5.19,5.19c-.94,2.32-1.65,4.75-2.12,7.27l-6.53,.29c-1.44,.06-2.6,1.21-2.67,2.66L0,48.53c-.07,1.3,.78,2.47,2.03,2.83l7.16,2.03c.41,2.83,1.14,5.56,2.14,8.15l-5.69,3.72c-1.21,.79-1.62,2.37-.95,3.64l2.17,4.13c.61,1.15,1.93,1.74,3.19,1.4l7.72-2.03c1.46,1.73,3.07,3.33,4.82,4.77l-3.46,6.51c-.68,1.27-.28,2.85,.93,3.65l3.89,2.57c1.09,.72,2.53,.59,3.47-.31l6.33-6.02c2.37,.86,4.84,1.5,7.4,1.88l.43,8.16c.08,1.44,1.24,2.59,2.68,2.65l4.66,.2c1.3,.05,2.47-.8,2.81-2.05l2.56-9.28c1.99-.4,3.92-.95,5.78-1.65l4.8,7.5c.78,1.21,2.35,1.64,3.63,.98l4.15-2.13c1.16-.6,1.75-1.91,1.43-3.17l-2.53-9.99c1.59-1.37,3.06-2.86,4.41-4.46l8.46,4.23c1.29,.65,2.86,.2,3.62-1.02l2.47-3.96c.69-1.1,.53-2.54-.39-3.46l-7.5-7.5c.55-1.57,1.01-3.17,1.35-4.83l9.6-.43c1.44-.06,2.6-1.21,2.67-2.66l.23-4.66c.07-1.3-.78-2.47-2.03-2.83ZM29.1,28.84l.08,.15-.15-.09s.04-.04,.07-.06Zm18.69,47.05c-14.91,0-27-12.09-27-27s12.09-27,27-27,27,12.09,27,27-12.09,27-27,27Z"/>
      <path class="cls-1" d="M21.81,55.11l.03-.02h-.04s0,.01,0,.02Z"/>
    </g>
    <g id="doctor">
      <path class="cls-1" d="M63.39,55.72c0-.23-.28-5.57-9.74-5.32-.34,0-.65,.19-.82,.49l-4.58,7.95-4.58-7.95c-.17-.3-.48-.48-.82-.49-9.45-.26-9.73,5.09-9.74,5.3l-.46,9.2c-.03,.54,.39,1,.93,1.03,.02,0,.03,0,.05,0,.52,0,.95-.41,.98-.93l.46-9.21s.2-3.43,7.13-3.43c.02,0,.04,0,.06,0l4.93,8.56s.05,.08,.08,.12v4.6c0,.54,.44,.98,.98,.98s.98-.44,.98-.98v-4.59s.07-.08,.09-.13l4.93-8.56h.05c6.82,0,7.13,3.3,7.14,3.45l.46,9.2c.03,.52,.46,.93,.98,.93,.02,0,.03,0,.05,0,.54-.03,.96-.49,.93-1.03l-.46-9.18Z"/>
      <polygon class="cls-1" points="56.67 56.48 55.29 56.48 55.29 58.84 52.93 58.84 52.93 60.22 55.29 60.22 55.29 62.58 56.67 62.58 56.67 60.22 59.02 60.22 59.02 58.84 56.67 58.84 56.67 56.48"/>
      <path class="cls-1" d="M53.94,31.69s-.05-.06-.08-.09c-1.2-1.13-2.71-1.7-4.59-1.75-.22,0-2.39-.02-3.14,.09-1.39,.2-2.54,.75-3.52,1.66-.03,.03-.06,.06-.08,.09-1.16,1.42-1.77,3.07-1.83,4.92,0,.03,0,.06,0,.09l.36,5.21s.01,.09,.02,.14c.53,2.25,1.87,4.44,4.12,6.7,.02,.02,.04,.04,.07,.06,.79,.65,1.79,.97,2.97,.95,.03,0,.06,0,.1,0,1.14,0,2.1-.32,2.88-.96,.02-.02,.04-.04,.07-.06,2.24-2.26,3.59-4.45,4.12-6.7,.01-.05,.02-.09,.02-.14l.36-5.21s0-.06,0-.09c-.06-1.85-.68-3.51-1.83-4.92Zm-3.88,15.79c-.46,.37-1.06,.53-1.8,.53,0,0-.01,0-.02,0s-.01,0-.02,0c-.76,0-1.34-.16-1.8-.53-1.96-1.99-3.14-3.87-3.6-5.76l-.35-5.09c.05-1.44,.51-2.67,1.4-3.78,.69-.63,1.52-1.01,2.52-1.16,.53-.08,2.45-.08,2.84-.07,1.43,.03,2.5,.42,3.38,1.23,.89,1.1,1.34,2.34,1.4,3.78l-.06,.88c-1.08-.3-2.37-.8-3.08-1.42,.21-.38,.38-.8,.51-1.27,.13-.47-.15-.95-.61-1.08-.47-.13-.95,.15-1.08,.61-.12,.44-.29,.81-.49,1.13-.12,.1-.2,.22-.26,.35-1.39,1.69-3.84,1.49-3.98,1.47-.48-.05-.91,.3-.96,.79-.05,.48,.3,.92,.79,.97,.18,.02,.38,.03,.6,.03,1.28,0,3.07-.37,4.41-1.6,1.21,1.01,3.04,1.57,4.04,1.82l-.17,2.42c-.46,1.89-1.64,3.78-3.6,5.76Z"/>
    </g>
  </g>
</svg>