<?xml version="1.0" encoding="UTF-8"?>
<svg id="Layer_2" data-name="Layer 2" xmlns="http://www.w3.org/2000/svg" viewBox="0 0 128.36 96.55">
  <defs>
    <style>
      .cls-1 {
        fill: #0772b6;
      }
    </style>
  </defs>
  <g id="remocoes-particulares">
    <path class="cls-1" d="M128.35,77.25c0-.3-.26-.54-.56-.53l-1.63,.08c-1.09,.05-2-.82-2-1.91v-10.24c0-.94,.75-1.7,1.69-1.71l1.87-.02c.29,0,.53-.24,.53-.54l-.04-5.94c0-.3-.24-.53-.54-.53l-4.01,.05c-.82,.01-1.5-.65-1.5-1.48h0c0-.82,.67-1.48,1.49-1.48l4,.02c.3,0,.54-.24,.54-.54l-.05-7.95c-1.3-1.95-3.14-3.48-5.29-4.4l-.19-.08-23.75-22.15H5.76c-3.18,0-5.76,2.58-5.76,5.76v55.18c0,3.18,2.58,5.76,5.76,5.76h.02c.64-8.49,7.72-15.18,16.37-15.18s15.73,6.69,16.37,15.18h49.87c.64-8.49,7.72-15.18,16.37-15.18s15.73,6.69,16.37,15.18h.54c3.71,0,6.71-3.02,6.69-6.73v-.62Zm-79.83-6.83c-11.82,0-21.4-9.58-21.4-21.4s9.58-21.4,21.4-21.4,21.4,9.58,21.4,21.4-9.58,21.4-21.4,21.4Zm51.76-17.42h-7.46v-1.99h7.46v1.99Zm17.04-6.47h-23.43c-.87,0-1.58-.71-1.58-1.58V23.79c0-1.29,1.53-1.96,2.48-1.1l23.52,21.26c1.01,.91,.36,2.59-1,2.59Z"/>
    <path class="cls-1" d="M21.4,72.66c-6.6,0-11.94,5.35-11.94,11.94s5.35,11.94,11.94,11.94,11.94-5.35,11.94-11.94-5.35-11.94-11.94-11.94Zm0,17.67c-3.16,0-5.72-2.56-5.72-5.72s2.56-5.72,5.72-5.72,5.72,2.56,5.72,5.72-2.56,5.72-5.72,5.72Z"/>
    <path class="cls-1" d="M105.01,72.66c-6.6,0-11.94,5.35-11.94,11.94s5.35,11.94,11.94,11.94,11.94-5.35,11.94-11.94-5.35-11.94-11.94-11.94Zm0,17.67c-3.16,0-5.72-2.56-5.72-5.72s2.56-5.72,5.72-5.72,5.72,2.56,5.72,5.72-2.56,5.72-5.72,5.72Z"/>
    <polygon class="cls-1" points="63.2 43.79 53.25 43.79 53.25 33.84 43.79 33.84 43.79 43.79 33.84 43.79 33.84 53.25 43.79 53.25 43.79 63.2 53.25 63.2 53.25 53.25 63.2 53.25 63.2 43.79"/>
    <path class="cls-1" d="M86.87,8.46h.94c1.8,0,3.26,1.46,3.26,3.26v3.94c0,.15-.12,.26-.26,.26h-6.94c-.15,0-.26-.12-.26-.26v-3.94c0-1.8,1.46-3.26,3.26-3.26Z"/>
    <rect class="cls-1" x="87.09" width="1" height="6.47"/>
    <rect class="cls-1" x="95.8" y="9.21" width="1" height="6.47" transform="translate(108.74 -83.86) rotate(90)"/>
    <rect class="cls-1" x="78.38" y="9.21" width="1" height="6.47" transform="translate(91.32 -66.44) rotate(90)"/>
    <rect class="cls-1" x="93.56" y="1.49" width="1" height="6.47" transform="translate(30.89 -65.12) rotate(45)"/>
    <rect class="cls-1" x="80.12" y="1.99" width="1" height="6.47" transform="translate(19.92 58.54) rotate(-45)"/>
  </g>
</svg>