<?xml version="1.0" encoding="UTF-8"?>
<svg id="Layer_2" data-name="Layer 2" xmlns="http://www.w3.org/2000/svg" viewBox="0 0 112.26 95.09">
  <defs>
    <style>
      .cls-1 {
        fill: #0772b6;
      }
    </style>
  </defs>
  <g id="transferencia-hospitalar">
    <rect class="cls-1" x="0" y="88.09" width="112.26" height="7" rx="3.5" ry="3.5"/>
    <path class="cls-1" d="M6.09,19.08c-3.36,0-6.09,2.73-6.09,6.09v60.06H27.03V19.08H6.09Zm1.7,7.96c0-1.15,.93-2.08,2.08-2.08h6.97c1.15,0,2.08,.93,2.08,2.08v9.19c0,1.15-.93,2.08-2.08,2.08h-6.97c-1.15,0-2.08-.93-2.08-2.08v-9.19Zm11.29,50.38c0,1.15-.93,2.08-2.08,2.08h-6.97c-1.15,0-2.08-.93-2.08-2.08v-9.19c0-1.15,.93-2.08,2.08-2.08h6.97c1.15,0,2.08,.93,2.08,2.08v9.19Zm0-20.67c0,1.15-.93,2.08-2.08,2.08h-6.97c-1.15,0-2.08-.93-2.08-2.08v-9.19c0-1.15,.93-2.08,2.08-2.08h6.97c1.15,0,2.08,.93,2.08,2.08v9.19Z"/>
    <path class="cls-1" d="M106.17,19.08h-20.94V85.23h27.03V25.17c0-3.36-2.73-6.09-6.09-6.09Zm-13.15,7.96c0-1.15,.93-2.08,2.08-2.08h6.97c1.15,0,2.08,.93,2.08,2.08v9.19c0,1.15-.93,2.08-2.08,2.08h-6.97c-1.15,0-2.08-.93-2.08-2.08v-9.19Zm11.29,50.38c0,1.15-.93,2.08-2.08,2.08h-6.97c-1.15,0-2.08-.93-2.08-2.08v-9.19c0-1.15,.93-2.08,2.08-2.08h6.97c1.15,0,2.08,.93,2.08,2.08v9.19Zm0-20.67c0,1.15-.93,2.08-2.08,2.08h-6.97c-1.15,0-2.08-.93-2.08-2.08v-9.19c0-1.15,.93-2.08,2.08-2.08h6.97c1.15,0,2.08,.93,2.08,2.08v9.19Z"/>
    <path class="cls-1" d="M76.28,0H35.67c-3.36,0-6.09,2.73-6.09,6.09V85.23h20.99v-18.3c0-.43,.35-.78,.78-.78h9.57c.43,0,.78,.35,.78,.78v18.3h20.67V6.09c0-3.36-2.73-6.09-6.09-6.09Zm-30.16,77.42c0,1.15-.93,2.08-2.08,2.08h-6.97c-1.15,0-2.08-.93-2.08-2.08v-9.19c0-1.15,.93-2.08,2.08-2.08h6.97c1.15,0,2.08,.93,2.08,2.08v9.19Zm0-20.67c0,1.15-.93,2.08-2.08,2.08h-6.97c-1.15,0-2.08-.93-2.08-2.08v-9.19c0-1.15,.93-2.08,2.08-2.08h6.97c1.15,0,2.08,.93,2.08,2.08v9.19Zm15.58,0c0,1.15-.93,2.08-2.08,2.08h-6.97c-1.15,0-2.08-.93-2.08-2.08v-9.19c0-1.15,.93-2.08,2.08-2.08h6.97c1.15,0,2.08,.93,2.08,2.08v9.19Zm-1.43-27.49v6.28c0,1.53-1.24,2.78-2.78,2.78h-3.03c-1.53,0-2.78-1.24-2.78-2.78v-6.28h-6.28c-1.53,0-2.78-1.24-2.78-2.78v-3.03c0-1.53,1.24-2.78,2.78-2.78h6.28v-6.28c0-1.53,1.24-2.78,2.78-2.78h3.03c1.53,0,2.78,1.24,2.78,2.78v6.28h6.28c1.53,0,2.78,1.24,2.78,2.78v3.03c0,1.53-1.24,2.78-2.78,2.78h-6.28Zm17.65,44.03c0,1.15-.93,2.08-2.08,2.08h-6.97c-1.15,0-2.08-.93-2.08-2.08v-9.19c0-1.15,.93-2.08,2.08-2.08h6.97c1.15,0,2.08,.93,2.08,2.08v9.19Zm0-16.54c0,1.15-.93,2.08-2.08,2.08h-6.97c-1.15,0-2.08-.93-2.08-2.08v-9.19c0-1.15,.93-2.08,2.08-2.08h6.97c1.15,0,2.08,.93,2.08,2.08v9.19Z"/>
  </g>
</svg>